# File created by Blade
# Date/Time:  Mon Sep 22 19:00:17 2014
# Frame Rate: 120.000 fps
#------------------------------------------------------
:FULLY-SPECIFIED
:DEGREES
2785
root -0.646297 32.804918 -3.529110 40.628645 2.705335 0.664376
Spine -44.950802 -4.377794 -1.663944
Head 8.440511 -18.989404 -1.657395
LeftShoulder -13.275062 42.688657 9.048870
LeftArm 68.944050 33.332327 -53.440878
LeftForeArm 9.368417 0.000000 7.588779
LeftHand -18.978878 0.000000 -6.979181
LeftHandThumb1 -26.253704 0.000000 33.147579
RightShoulder -24.496836 -15.672519 -42.514462
RightArm -241.662821 45.761267 -228.256428
RightForeArm 76.128516 -0.000000 129.543340
RightHand 25.929271 -0.000000 -12.032651
RightHandThumb1 -24.326973 -0.000000 -32.862282
LeftUpLeg -34.561738 6.213753 -1.655026
LeftLeg -1.098703 -0.000000 0.000000
LeftFoot -1.721083 -1.681740 -3.187504
LeftToeBase 1.883744 -0.000000 -0.000000
RightUpLeg -34.912475 -11.973413 6.353675
RightLeg -2.236617 -0.000000 0.000000
RightFoot -5.916271 -4.364335 20.025223
RightToeBase 15.990458 -0.000000 -0.000000
2786
root -0.646406 32.805433 -3.526095 40.661893 2.743078 0.671476
Spine -44.927552 -4.471810 -1.585277
Head 8.360639 -18.999167 -1.630766
LeftShoulder -13.333718 42.681158 8.991420
LeftArm 68.928016 33.346223 -53.432727
LeftForeArm 9.349661 -0.000000 7.583313
LeftHand -18.955268 -0.000000 -6.772058
LeftHandThumb1 -26.253704 0.000000 33.147579
RightShoulder -24.697728 -15.753272 -42.566263
RightArm -241.904867 46.742825 -228.824308
RightForeArm 75.951781 -0.000000 129.466391
RightHand 25.868527 0.000000 -11.983883
RightHandThumb1 -24.326973 -0.000000 -32.862282
LeftUpLeg -34.593327 6.257501 -1.687986
LeftLeg -1.106915 -0.000000 0.000000
LeftFoot -1.706442 -1.783826 -3.128157
LeftToeBase 1.871952 -0.000000 -0.000000
RightUpLeg -34.950280 -11.974050 6.354619
RightLeg -2.200613 -0.000000 0.000000
RightFoot -5.944516 -4.389100 20.006795
RightToeBase 15.970505 -0.000000 -0.000000
2787
root -0.646379 32.805521 -3.523478 40.698032 2.789191 0.679854
Spine -44.909967 -4.585133 -1.486130
Head 8.267438 -19.032983 -1.621547
LeftShoulder -13.407984 42.703761 8.915761
LeftArm 68.978971 33.370846 -53.320683
LeftForeArm 9.269180 -0.000000 7.590085
LeftHand -18.977054 -0.000000 -6.734921
LeftHandThumb1 -26.253704 0.000000 33.147579
RightShoulder -24.892666 -15.858982 -42.617544
RightArm -242.113674 47.727818 -229.369330
RightForeArm 75.540525 -0.000000 129.437508
RightHand 25.639802 -0.000000 -12.159770
RightHandThumb1 -24.326973 -0.000000 -32.862282
LeftUpLeg -34.624417 6.274501 -1.708184
LeftLeg -1.124270 -0.000000 0.000000
LeftFoot -1.685069 -1.851970 -3.117702
LeftToeBase 1.879165 -0.000000 -0.000000
RightUpLeg -34.979178 -11.975798 6.355359
RightLeg -2.190595 -0.000000 0.000000
RightFoot -5.968464 -4.406032 20.049222
RightToeBase 15.965246 -0.000000 -0.000000
2788
root -0.646849 32.805221 -3.520731 40.743306 2.852176 0.688588
Spine -44.894211 -4.711018 -1.380675
Head 8.167091 -19.071304 -1.614884
LeftShoulder -13.509231 42.738859 8.825112
LeftArm 69.062917 33.395200 -53.177833
LeftForeArm 9.155811 -0.000000 7.608694
LeftHand -18.994182 -0.000000 -6.655963
LeftHandThumb1 -26.253704 0.000000 33.147579
RightShoulder -25.082172 -16.126280 -42.600560
RightArm -242.095408 48.714092 -229.738559
RightForeArm 75.213174 -0.000000 129.401690
RightHand 25.497298 -0.000000 -12.319128
RightHandThumb1 -24.326973 -0.000000 -32.862282
LeftUpLeg -34.670733 6.263059 -1.713756
LeftLeg -1.138888 -0.000000 0.000000
LeftFoot -1.680427 -1.871763 -3.200710
LeftToeBase 1.940425 -0.000000 -0.000000
RightUpLeg -35.008863 -11.979287 6.365358
RightLeg -2.194407 -0.000000 0.000000
RightFoot -5.988233 -4.457035 20.037995
RightToeBase 15.926620 -0.000000 -0.000000
